<svg width="1732" height="654" viewBox="0 0 1732 654" fill="none" xmlns="http://www.w3.org/2000/svg">
<path opacity="0.1" d="M653.075 350.184C330.192 220.218 84.6102 414.296 2.17952 527.581L0.000420517 560.281C114.237 397.215 363.182 247.223 651.878 368.157C847.165 381.171 1135.24 695.437 1403.21 543.481C1143.82 675.084 870.815 395.68 653.075 350.184Z" fill="url(#paint0_linear_258_1772)"/>
<path opacity="0.1" d="M1052.74 312.271C1386.96 446.215 1643.17 255.119 1729.5 142.828L1731.99 110.15C1612.31 271.84 1352.91 418.802 1054.1 294.31C851.51 278.9 554.68 -38.945 275.517 109.749C545.63 -18.6938 827.064 264.099 1052.74 312.271Z" fill="url(#paint1_linear_258_1772)"/>
<defs>
<linearGradient id="paint0_linear_258_1772" x1="-49.099" y1="494.804" x2="1461.25" y2="496.785" gradientUnits="userSpaceOnUse">
<stop stop-color="#1F7AFF"/>
<stop offset="1" stop-color="#1F37FF" stop-opacity="0.15"/>
</linearGradient>
<linearGradient id="paint1_linear_258_1772" x1="1782.5" y1="176.239" x2="214.895" y2="163.369" gradientUnits="userSpaceOnUse">
<stop stop-color="#1F7AFF"/>
<stop offset="1" stop-color="#1F37FF" stop-opacity="0.15"/>
</linearGradient>
</defs>
</svg>
