<svg width="713" height="475" viewBox="0 0 713 475" fill="none" xmlns="http://www.w3.org/2000/svg">
<mask id="mask0_153_1975" style="mask-type:luminance" maskUnits="userSpaceOnUse" x="0" y="0" width="713" height="475">
<path d="M0 0.000335693H712.148V474.766H0V0.000335693Z" fill="white"/>
</mask>
<g mask="url(#mask0_153_1975)">
<path d="M310.533 149.632C310.533 149.632 306.771 157.114 321.257 152.943C335.743 148.773 343.657 154.234 342.329 159.016C341.002 163.798 338.242 177.991 352.393 184.793C366.545 191.595 370.278 176.387 368.412 170.468C366.545 164.549 372.556 151.104 375.561 152.943C378.566 154.782 400.661 176.786 424.924 149.632C424.924 149.632 365.942 138.462 310.533 149.632Z" fill="#E5E5E5"/>
</g>
<mask id="mask1_153_1975" style="mask-type:luminance" maskUnits="userSpaceOnUse" x="0" y="0" width="713" height="475">
<path d="M0 0.000335693H712.148V474.766H0V0.000335693Z" fill="white"/>
</mask>
<g mask="url(#mask1_153_1975)">
<path d="M433.242 351.605C430.698 354.884 429.995 361.276 430.729 368.482L489.358 272.263C488.628 271.299 487.929 270.192 487.267 268.917C476.922 248.999 481.52 237.471 479.22 225.943C476.922 214.414 455.305 232.86 437.952 220.178C420.599 207.497 414.507 195.167 398.76 204.253C398.76 204.253 396.814 210.265 386.832 218.673C381.496 223.167 356.4 221.212 352.395 228.441C340.9 249.192 359.522 254.604 356.074 277.14C352.625 299.677 402.207 277.711 413.702 280.648C425.196 283.585 402.207 315.456 410.254 326.037C418.3 336.617 441.289 341.228 433.242 351.605Z" fill="#E5E5E5"/>
</g>
<mask id="mask2_153_1975" style="mask-type:luminance" maskUnits="userSpaceOnUse" x="0" y="0" width="713" height="475">
<path d="M0 0.000335693H712.148V474.766H0V0.000335693Z" fill="white"/>
</mask>
<g mask="url(#mask2_153_1975)">
<path d="M177.977 196.468C177.977 196.468 239.526 157.866 291.767 152.944C291.767 152.944 299.553 162.859 287.222 168.964C274.891 175.067 273.09 184.013 277.058 191.943C281.027 199.874 294.855 179.575 303.766 178.073C312.675 176.57 319.541 199.775 333.13 196.468C346.72 193.16 365.282 219.711 356.073 222.136C346.865 224.559 327.221 218.111 320.333 229.483C313.446 240.856 317.455 277.778 311.765 276.091C306.077 274.405 306.444 249.444 298.18 249.444C289.917 249.444 277.88 259.828 274.132 271.165C270.383 282.5 270.536 303.088 278.724 306.693C286.911 310.298 297.33 292.267 303.766 294.521C310.201 296.774 299.583 312.215 303.766 318.018C307.947 323.82 342.581 305.975 350.057 310.766C357.532 315.556 366.701 336.592 383.151 340.348C399.603 344.105 419.248 355.546 407.171 367.105C395.095 378.664 381.572 390.807 374.059 409.527C366.547 428.248 365.045 433.85 365.045 433.85H320.333C320.333 433.85 323.849 425.331 327.919 409.51C331.989 393.689 320.307 399.699 314.128 388.43C307.947 377.161 308.599 368.146 303.766 358.38C298.932 348.612 317.303 332.628 310.535 325.323C303.766 318.018 294.46 331.333 294.442 323.069C294.424 314.805 292.663 307.478 289.787 310.766C286.911 314.054 278.1 320.965 264.014 299.672C249.928 278.382 245.329 298.796 232.405 291.571L177.977 196.468Z" fill="#E5E5E5"/>
</g>
<mask id="mask3_153_1975" style="mask-type:luminance" maskUnits="userSpaceOnUse" x="0" y="0" width="713" height="475">
<path d="M0 0.000335693H712.148V474.766H0V0.000335693Z" fill="white"/>
</mask>
<g mask="url(#mask3_153_1975)">
<path d="M356.075 138.78C429.782 138.78 496.019 159.307 541.725 191.943C501.806 153.372 433.566 127.945 356.075 127.945C278.584 127.945 210.343 153.372 170.426 191.943C216.131 159.307 282.369 138.78 356.075 138.78Z" fill="#F9D60C"/>
</g>
<mask id="mask4_153_1975" style="mask-type:luminance" maskUnits="userSpaceOnUse" x="0" y="0" width="713" height="475">
<path d="M0 0.000335693H712.148V474.766H0V0.000335693Z" fill="white"/>
</mask>
<g mask="url(#mask4_153_1975)">
<path d="M356.074 147.072C356.074 147.072 356.637 145.787 357.721 143.655" stroke="#271E49" stroke-width="0.949531" stroke-miterlimit="10"/>
</g>
<mask id="mask5_153_1975" style="mask-type:luminance" maskUnits="userSpaceOnUse" x="0" y="0" width="713" height="475">
<path d="M0 0.000335693H712.148V474.766H0V0.000335693Z" fill="white"/>
</mask>
<g mask="url(#mask5_153_1975)">
<path d="M361.461 136.853C369.491 123.281 386.024 101.202 407.84 102.946C437.942 105.351 453.55 159.974 458.458 222.305" stroke="#271E49" stroke-width="0.949531" stroke-miterlimit="10" stroke-dasharray="7.77 7.77"/>
</g>
<mask id="mask6_153_1975" style="mask-type:luminance" maskUnits="userSpaceOnUse" x="0" y="0" width="713" height="475">
<path d="M0 0.000335693H712.148V474.766H0V0.000335693Z" fill="white"/>
</mask>
<g mask="url(#mask6_153_1975)">
<path d="M458.75 226.183C458.84 227.444 458.926 228.709 459.007 229.975" stroke="#271E49" stroke-width="0.949531" stroke-miterlimit="10"/>
</g>
<mask id="mask7_153_1975" style="mask-type:luminance" maskUnits="userSpaceOnUse" x="0" y="0" width="713" height="475">
<path d="M0 0.000335693H712.148V474.766H0V0.000335693Z" fill="white"/>
</mask>
<g mask="url(#mask7_153_1975)">
<path d="M455.849 196.735L451.145 197.014L453.392 195.098L455.639 193.181L458.097 194.818L460.555 196.455L455.849 196.735Z" fill="#271E49"/>
</g>
<mask id="mask8_153_1975" style="mask-type:luminance" maskUnits="userSpaceOnUse" x="0" y="0" width="713" height="475">
<path d="M0 0.000335693H712.148V474.766H0V0.000335693Z" fill="white"/>
</mask>
<g mask="url(#mask8_153_1975)">
<path d="M382.079 111.228L385.221 114.742L382.323 114.172L379.426 113.6L379.182 110.656L378.938 107.714L382.079 111.228Z" fill="#271E49"/>
</g>
<mask id="mask9_153_1975" style="mask-type:luminance" maskUnits="userSpaceOnUse" x="0" y="0" width="713" height="475">
<path d="M0 0.000335693H712.148V474.766H0V0.000335693Z" fill="white"/>
</mask>
<g mask="url(#mask9_153_1975)">
<path d="M222.121 183.781C222.121 183.781 222.64 182.516 223.651 180.309" stroke="#271E49" stroke-width="0.949531" stroke-miterlimit="10"/>
</g>
<mask id="mask10_153_1975" style="mask-type:luminance" maskUnits="userSpaceOnUse" x="0" y="0" width="713" height="475">
<path d="M0 0.000335693H712.148V474.766H0V0.000335693Z" fill="white"/>
</mask>
<g mask="url(#mask10_153_1975)">
<path d="M226.926 173.541C236.604 154.48 260.463 114.817 294.441 107.453C329.457 99.8631 349.511 131.541 356.711 146.04" stroke="#271E49" stroke-width="0.949531" stroke-miterlimit="10" stroke-dasharray="7.52 7.52"/>
</g>
<mask id="mask11_153_1975" style="mask-type:luminance" maskUnits="userSpaceOnUse" x="0" y="0" width="713" height="475">
<path d="M0 0.000335693H712.148V474.766H0V0.000335693Z" fill="white"/>
</mask>
<g mask="url(#mask11_153_1975)">
<path d="M358.324 149.442C359.305 151.629 359.788 152.943 359.788 152.943" stroke="#271E49" stroke-width="0.949531" stroke-miterlimit="10"/>
</g>
<mask id="mask12_153_1975" style="mask-type:luminance" maskUnits="userSpaceOnUse" x="0" y="0" width="713" height="475">
<path d="M0 0.000335693H712.148V474.766H0V0.000335693Z" fill="white"/>
</mask>
<g mask="url(#mask12_153_1975)">
<path d="M246.443 141.611L242.801 138.62L245.751 138.74L248.701 138.86L249.393 141.73L250.086 144.602L246.443 141.611Z" fill="#271E49"/>
</g>
<mask id="mask13_153_1975" style="mask-type:luminance" maskUnits="userSpaceOnUse" x="0" y="0" width="713" height="475">
<path d="M0 0.000335693H712.148V474.766H0V0.000335693Z" fill="white"/>
</mask>
<g mask="url(#mask13_153_1975)">
<path d="M335.426 118.08L338.458 114.471L338.305 117.42L338.152 120.37L335.274 121.03L332.395 121.689L335.426 118.08Z" fill="#271E49"/>
</g>
<mask id="mask14_153_1975" style="mask-type:luminance" maskUnits="userSpaceOnUse" x="0" y="0" width="713" height="475">
<path d="M0 0.000335693H712.148V474.766H0V0.000335693Z" fill="white"/>
</mask>
<g mask="url(#mask14_153_1975)">
<path d="M365.799 147.073C365.799 152.445 356.073 161.918 356.073 161.918C356.073 161.918 346.348 152.445 346.348 147.073C346.348 141.702 350.702 137.348 356.073 137.348C361.444 137.348 365.799 141.702 365.799 147.073Z" fill="#FF3162"/>
</g>
<mask id="mask15_153_1975" style="mask-type:luminance" maskUnits="userSpaceOnUse" x="0" y="0" width="713" height="475">
<path d="M0 0.000335693H712.148V474.766H0V0.000335693Z" fill="white"/>
</mask>
<g mask="url(#mask15_153_1975)">
<path d="M361.663 147.072C361.663 150.159 359.161 152.662 356.074 152.662C352.986 152.662 350.484 150.159 350.484 147.072C350.484 143.985 352.986 141.482 356.074 141.482C359.161 141.482 361.663 143.985 361.663 147.072Z" fill="#271E49"/>
</g>
<mask id="mask16_153_1975" style="mask-type:luminance" maskUnits="userSpaceOnUse" x="0" y="0" width="713" height="475">
<path d="M0 0.000335693H712.148V474.766H0V0.000335693Z" fill="white"/>
</mask>
<g mask="url(#mask16_153_1975)">
<path d="M231.85 182.234C231.85 187.606 222.124 197.078 222.124 197.078C222.124 197.078 212.398 187.606 212.398 182.234C212.398 176.863 216.753 172.508 222.124 172.508C227.495 172.508 231.85 176.863 231.85 182.234Z" fill="#2A59FF"/>
</g>
<mask id="mask17_153_1975" style="mask-type:luminance" maskUnits="userSpaceOnUse" x="0" y="0" width="713" height="475">
<path d="M0 0.000335693H712.148V474.766H0V0.000335693Z" fill="white"/>
</mask>
<g mask="url(#mask17_153_1975)">
<path d="M227.714 182.234C227.714 185.321 225.211 187.824 222.124 187.824C219.037 187.824 216.535 185.321 216.535 182.234C216.535 179.147 219.037 176.644 222.124 176.644C225.211 176.644 227.714 179.147 227.714 182.234Z" fill="#271E49"/>
</g>
<mask id="mask18_153_1975" style="mask-type:luminance" maskUnits="userSpaceOnUse" x="0" y="0" width="713" height="475">
<path d="M0 0.000335693H712.148V474.766H0V0.000335693Z" fill="white"/>
</mask>
<g mask="url(#mask18_153_1975)">
<path d="M468.732 229.975C468.732 235.347 459.007 244.82 459.007 244.82C459.007 244.82 449.281 235.347 449.281 229.975C449.281 224.604 453.636 220.25 459.007 220.25C464.378 220.25 468.732 224.604 468.732 229.975Z" fill="#33E2B8"/>
</g>
<mask id="mask19_153_1975" style="mask-type:luminance" maskUnits="userSpaceOnUse" x="0" y="0" width="713" height="475">
<path d="M0 0.000335693H712.148V474.766H0V0.000335693Z" fill="white"/>
</mask>
<g mask="url(#mask19_153_1975)">
<path d="M464.597 229.975C464.597 233.061 462.094 235.564 459.007 235.564C455.919 235.564 453.418 233.061 453.418 229.975C453.418 226.888 455.919 224.385 459.007 224.385C462.094 224.385 464.597 226.888 464.597 229.975Z" fill="#271E49"/>
</g>
<mask id="mask20_153_1975" style="mask-type:luminance" maskUnits="userSpaceOnUse" x="0" y="0" width="713" height="475">
<path d="M0 0.000335693H712.148V474.766H0V0.000335693Z" fill="white"/>
</mask>
<g mask="url(#mask20_153_1975)">
<path d="M680.843 425.65C680.843 421.122 636.795 417.451 582.461 417.451C528.126 417.451 484.078 421.122 484.078 425.65C484.078 430.179 528.126 433.85 582.461 433.85C636.795 433.85 680.843 430.179 680.843 425.65Z" fill="#E5E5E5"/>
</g>
<mask id="mask21_153_1975" style="mask-type:luminance" maskUnits="userSpaceOnUse" x="0" y="0" width="713" height="475">
<path d="M0 0.000335693H712.148V474.766H0V0.000335693Z" fill="white"/>
</mask>
<g mask="url(#mask21_153_1975)">
<path d="M228.068 425.65C228.068 421.122 184.021 417.451 129.687 417.451C75.3515 417.451 31.3047 421.122 31.3047 425.65C31.3047 430.179 75.3515 433.85 129.687 433.85C184.021 433.85 228.068 430.179 228.068 425.65Z" fill="#E5E5E5"/>
</g>
<mask id="mask22_153_1975" style="mask-type:luminance" maskUnits="userSpaceOnUse" x="0" y="0" width="713" height="475">
<path d="M0 0.000335693H712.148V474.766H0V0.000335693Z" fill="white"/>
</mask>
<g mask="url(#mask22_153_1975)">
<path d="M282.582 399.809L153.793 403.482L138.228 377.067L121.265 348.293L39.8125 210.073L113.735 207.37L149.107 206.075L167.679 205.397L184.187 233.32L212.161 280.665L282.582 399.809Z" fill="#271E49"/>
</g>
<mask id="mask23_153_1975" style="mask-type:luminance" maskUnits="userSpaceOnUse" x="0" y="0" width="713" height="475">
<path d="M0 0.000335693H712.148V474.766H0V0.000335693Z" fill="white"/>
</mask>
<g mask="url(#mask23_153_1975)">
<path d="M142.276 349.408C137.944 357.373 137.124 367.099 138.227 377.068L121.265 348.294C132.438 326.15 146.951 309.207 147.529 303.722C148.713 292.448 119.362 276.395 113.118 249.839C110.719 239.647 111.66 223.453 113.735 207.371L149.107 206.076C142.042 230.618 138.329 259.342 151.03 277.398C172.01 307.224 158.328 319.874 142.276 349.408Z" fill="white"/>
</g>
<mask id="mask24_153_1975" style="mask-type:luminance" maskUnits="userSpaceOnUse" x="0" y="0" width="713" height="475">
<path d="M0 0.000335693H712.148V474.766H0V0.000335693Z" fill="white"/>
</mask>
<g mask="url(#mask24_153_1975)">
<path d="M215.38 375.842C211.432 383.109 210.177 392.239 210.542 401.863L181.879 402.684C191.494 372.199 214.691 347.777 215.43 340.723C216.605 329.448 188.853 309.297 182.609 282.729C179.865 271.061 181.495 251.549 184.188 233.32L212.162 280.666C212.404 291.798 214.782 302.132 220.521 310.29C241.512 340.115 231.442 346.309 215.38 375.842Z" fill="white"/>
</g>
<mask id="mask25_153_1975" style="mask-type:luminance" maskUnits="userSpaceOnUse" x="0" y="0" width="713" height="475">
<path d="M0 0.000335693H712.148V474.766H0V0.000335693Z" fill="white"/>
</mask>
<g mask="url(#mask25_153_1975)">
<path d="M171.45 203.216C166.832 195.369 155.884 189.23 147.003 189.487L45.82 192.484C36.9314 192.747 33.479 199.311 38.0918 207.151L39.8142 210.076L172.627 205.22L171.45 203.216Z" fill="#33E2B8"/>
</g>
<mask id="mask26_153_1975" style="mask-type:luminance" maskUnits="userSpaceOnUse" x="0" y="0" width="713" height="475">
<path d="M0 0.000335693H712.148V474.766H0V0.000335693Z" fill="white"/>
</mask>
<g mask="url(#mask26_153_1975)">
<path d="M155.045 405.619L153.793 403.483C154.899 403.535 287.222 399.672 287.222 399.672L288.407 401.672C293.024 409.518 289.556 416.094 280.675 416.352L179.487 419.339C170.603 419.61 159.663 413.466 155.045 405.619Z" fill="#33E2B8"/>
</g>
<mask id="mask27_153_1975" style="mask-type:luminance" maskUnits="userSpaceOnUse" x="0" y="0" width="713" height="475">
<path d="M0 0.000335693H712.148V474.766H0V0.000335693Z" fill="white"/>
</mask>
<g mask="url(#mask27_153_1975)">
<path d="M172.626 205.219L287.222 399.674L282.58 399.811L167.68 205.4L172.626 205.219Z" fill="#33E2B8"/>
</g>
<mask id="mask28_153_1975" style="mask-type:luminance" maskUnits="userSpaceOnUse" x="0" y="0" width="713" height="475">
<path d="M0 0.000335693H712.148V474.766H0V0.000335693Z" fill="white"/>
</mask>
<g mask="url(#mask28_153_1975)">
<path d="M44.4861 209.902L158.656 403.366L153.793 403.482L39.8125 210.073L44.4861 209.902Z" fill="#33E2B8"/>
</g>
<mask id="mask29_153_1975" style="mask-type:luminance" maskUnits="userSpaceOnUse" x="0" y="0" width="713" height="475">
<path d="M0 0.000335693H712.148V474.766H0V0.000335693Z" fill="white"/>
</mask>
<g mask="url(#mask29_153_1975)">
<path d="M53.2772 204.27C55.3586 204.208 56.1714 202.665 55.0861 200.822C54.0046 198.984 51.4342 197.54 49.3519 197.602C47.2638 197.664 46.452 199.207 47.5335 201.045C48.6188 202.888 51.1892 204.331 53.2772 204.27Z" fill="white"/>
</g>
<mask id="mask30_153_1975" style="mask-type:luminance" maskUnits="userSpaceOnUse" x="0" y="0" width="713" height="475">
<path d="M0 0.000335693H712.148V474.766H0V0.000335693Z" fill="white"/>
</mask>
<g mask="url(#mask30_153_1975)">
<path d="M69.246 203.137C71.3273 203.075 72.1401 201.532 71.0558 199.689C69.9743 197.851 67.4029 196.407 65.3206 196.469C63.2326 196.531 62.4207 198.074 63.5023 199.912C64.5876 201.755 67.158 203.198 69.246 203.137Z" fill="white"/>
</g>
<mask id="mask31_153_1975" style="mask-type:luminance" maskUnits="userSpaceOnUse" x="0" y="0" width="713" height="475">
<path d="M0 0.000335693H712.148V474.766H0V0.000335693Z" fill="white"/>
</mask>
<g mask="url(#mask31_153_1975)">
<path d="M232.269 415.571C236.048 415.46 237.521 412.662 235.557 409.326C233.592 405.989 228.934 403.373 225.154 403.485C221.375 403.597 219.902 406.394 221.867 409.731C223.83 413.067 228.49 415.683 232.269 415.571Z" fill="white"/>
</g>
<mask id="mask32_153_1975" style="mask-type:luminance" maskUnits="userSpaceOnUse" x="0" y="0" width="713" height="475">
<path d="M0 0.000335693H712.148V474.766H0V0.000335693Z" fill="white"/>
</mask>
<g mask="url(#mask32_153_1975)">
<path d="M36.606 197.601L36.5898 197.643C36.5955 197.628 36.6003 197.614 36.606 197.601Z" fill="#C6D0DC"/>
</g>
<mask id="mask33_153_1975" style="mask-type:luminance" maskUnits="userSpaceOnUse" x="0" y="0" width="713" height="475">
<path d="M0 0.000335693H712.148V474.766H0V0.000335693Z" fill="white"/>
</mask>
<g mask="url(#mask33_153_1975)">
<path d="M280.677 416.352L179.49 419.339C170.605 419.61 159.665 413.466 155.047 405.619L38.0938 207.149C36.0988 203.759 35.6155 200.609 36.4245 198.102L31.9484 210.379C30.7938 212.988 31.1669 216.415 33.3537 220.129L150.306 418.595C154.924 426.439 165.864 432.581 174.749 432.318L275.939 429.326C280.979 429.177 284.271 426.995 285.334 423.703L289.79 411.469C288.492 414.346 285.329 416.216 280.677 416.352Z" fill="#271E49"/>
</g>
<mask id="mask34_153_1975" style="mask-type:luminance" maskUnits="userSpaceOnUse" x="0" y="0" width="713" height="475">
<path d="M0 0.000335693H712.148V474.766H0V0.000335693Z" fill="white"/>
</mask>
<g mask="url(#mask34_153_1975)">
<path d="M429.566 399.809L558.355 403.482L573.921 377.067L590.884 348.293L672.337 210.073L598.413 207.37L563.041 206.075L544.469 205.397L527.962 233.32L499.987 280.665L429.566 399.809Z" fill="#271E49"/>
</g>
<mask id="mask35_153_1975" style="mask-type:luminance" maskUnits="userSpaceOnUse" x="0" y="0" width="713" height="475">
<path d="M0 0.000335693H712.148V474.766H0V0.000335693Z" fill="white"/>
</mask>
<g mask="url(#mask35_153_1975)">
<path d="M569.874 349.408C574.206 357.373 575.025 367.099 573.923 377.068L590.885 348.294C579.711 326.15 565.197 309.207 564.621 303.722C563.437 292.448 592.788 276.395 599.032 249.839C601.431 239.647 600.49 223.453 598.415 207.371L563.043 206.076C570.107 230.618 573.821 259.342 561.119 277.398C540.139 307.224 553.822 319.874 569.874 349.408Z" fill="white"/>
</g>
<mask id="mask36_153_1975" style="mask-type:luminance" maskUnits="userSpaceOnUse" x="0" y="0" width="713" height="475">
<path d="M0 0.000335693H712.148V474.766H0V0.000335693Z" fill="white"/>
</mask>
<g mask="url(#mask36_153_1975)">
<path d="M496.769 375.842C500.715 383.109 501.971 392.239 501.606 401.863L530.268 402.684C520.653 372.199 497.457 347.777 496.717 340.723C495.544 329.448 523.296 309.297 529.54 282.729C532.282 271.061 530.654 251.549 527.961 233.32L499.987 280.666C499.743 291.798 497.366 302.132 491.627 310.29C470.637 340.115 480.706 346.309 496.769 375.842Z" fill="white"/>
</g>
<mask id="mask37_153_1975" style="mask-type:luminance" maskUnits="userSpaceOnUse" x="0" y="0" width="713" height="475">
<path d="M0 0.000335693H712.148V474.766H0V0.000335693Z" fill="white"/>
</mask>
<g mask="url(#mask37_153_1975)">
<path d="M540.7 203.216C545.317 195.369 556.266 189.23 565.147 189.487L666.329 192.484C675.218 192.747 678.671 199.311 674.058 207.151L672.336 210.076L539.523 205.22L540.7 203.216Z" fill="#33E2B8"/>
</g>
<mask id="mask38_153_1975" style="mask-type:luminance" maskUnits="userSpaceOnUse" x="0" y="0" width="713" height="475">
<path d="M0 0.000335693H712.148V474.766H0V0.000335693Z" fill="white"/>
</mask>
<g mask="url(#mask38_153_1975)">
<path d="M557.101 405.619L558.353 403.483C557.246 403.535 424.925 399.672 424.925 399.672L423.74 401.672C419.123 409.518 422.591 416.094 431.472 416.352L532.659 419.339C541.543 419.61 552.484 413.466 557.101 405.619Z" fill="#33E2B8"/>
</g>
<mask id="mask39_153_1975" style="mask-type:luminance" maskUnits="userSpaceOnUse" x="0" y="0" width="713" height="475">
<path d="M0 0.000335693H712.148V474.766H0V0.000335693Z" fill="white"/>
</mask>
<g mask="url(#mask39_153_1975)">
<path d="M539.522 205.219L424.926 399.674L429.567 399.811L544.468 205.4L539.522 205.219Z" fill="#33E2B8"/>
</g>
<mask id="mask40_153_1975" style="mask-type:luminance" maskUnits="userSpaceOnUse" x="0" y="0" width="713" height="475">
<path d="M0 0.000335693H712.148V474.766H0V0.000335693Z" fill="white"/>
</mask>
<g mask="url(#mask40_153_1975)">
<path d="M667.662 209.902L553.492 403.366L558.355 403.482L672.336 210.073L667.662 209.902Z" fill="#33E2B8"/>
</g>
<mask id="mask41_153_1975" style="mask-type:luminance" maskUnits="userSpaceOnUse" x="0" y="0" width="713" height="475">
<path d="M0 0.000335693H712.148V474.766H0V0.000335693Z" fill="white"/>
</mask>
<g mask="url(#mask41_153_1975)">
<path d="M658.869 204.27C656.788 204.208 655.974 202.665 657.059 200.822C658.141 198.984 660.712 197.54 662.794 197.602C664.881 197.664 665.694 199.207 664.613 201.045C663.527 202.888 660.956 204.331 658.869 204.27Z" fill="white"/>
</g>
<mask id="mask42_153_1975" style="mask-type:luminance" maskUnits="userSpaceOnUse" x="0" y="0" width="713" height="475">
<path d="M0 0.000335693H712.148V474.766H0V0.000335693Z" fill="white"/>
</mask>
<g mask="url(#mask42_153_1975)">
<path d="M642.904 203.137C640.823 203.075 640.009 201.532 641.094 199.689C642.176 197.851 644.746 196.407 646.83 196.469C648.917 196.531 649.728 198.074 648.648 199.912C647.563 201.755 644.991 203.198 642.904 203.137Z" fill="white"/>
</g>
<mask id="mask43_153_1975" style="mask-type:luminance" maskUnits="userSpaceOnUse" x="0" y="0" width="713" height="475">
<path d="M0 0.000335693H712.148V474.766H0V0.000335693Z" fill="white"/>
</mask>
<g mask="url(#mask43_153_1975)">
<path d="M479.877 415.571C476.098 415.46 474.625 412.662 476.589 409.326C478.552 405.989 483.212 403.373 486.991 403.485C490.771 403.597 492.243 406.394 490.279 409.731C488.315 413.067 483.656 415.683 479.877 415.571Z" fill="white"/>
</g>
<mask id="mask44_153_1975" style="mask-type:luminance" maskUnits="userSpaceOnUse" x="0" y="0" width="713" height="475">
<path d="M0 0.000335693H712.148V474.766H0V0.000335693Z" fill="white"/>
</mask>
<g mask="url(#mask44_153_1975)">
<path d="M675.543 197.601H675.544L675.56 197.643C675.554 197.628 675.549 197.614 675.543 197.601Z" fill="#C6D0DC"/>
</g>
<mask id="mask45_153_1975" style="mask-type:luminance" maskUnits="userSpaceOnUse" x="0" y="0" width="713" height="475">
<path d="M0 0.000335693H712.148V474.766H0V0.000335693Z" fill="white"/>
</mask>
<g mask="url(#mask45_153_1975)">
<path d="M431.473 416.352L532.66 419.339C541.544 419.61 552.484 413.466 557.103 405.619L674.056 207.149C676.05 203.759 676.534 200.609 675.725 198.102L680.202 210.379C681.356 212.988 680.983 216.415 678.796 220.129L561.844 418.595C557.226 426.439 546.285 432.581 537.401 432.318L436.21 429.326C431.171 429.177 427.879 426.995 426.816 423.703L422.359 411.469C423.658 414.346 426.821 416.216 431.473 416.352Z" fill="#271E49"/>
</g>
<mask id="mask46_153_1975" style="mask-type:luminance" maskUnits="userSpaceOnUse" x="0" y="0" width="713" height="475">
<path d="M0 0.000335693H712.148V474.766H0V0.000335693Z" fill="white"/>
</mask>
<g mask="url(#mask46_153_1975)">
<path d="M321.801 218.674C321.801 218.674 337.062 261.13 332.9 263.95C328.738 266.768 308.488 258.615 303.766 231.16L321.801 218.674Z" fill="#271E49"/>
</g>
<mask id="mask47_153_1975" style="mask-type:luminance" maskUnits="userSpaceOnUse" x="0" y="0" width="713" height="475">
<path d="M0 0.000335693H712.148V474.766H0V0.000335693Z" fill="white"/>
</mask>
<g mask="url(#mask47_153_1975)">
<path d="M312.64 229.482C312.64 229.482 316.513 274.432 311.768 276.09C307.022 277.75 289.537 264.68 292.007 236.931L312.64 229.482Z" fill="#271E49"/>
</g>
<mask id="mask48_153_1975" style="mask-type:luminance" maskUnits="userSpaceOnUse" x="0" y="0" width="713" height="475">
<path d="M0 0.000335693H712.148V474.766H0V0.000335693Z" fill="white"/>
</mask>
<g mask="url(#mask48_153_1975)">
<path d="M302.795 235.07C302.795 235.07 287.715 277.591 282.708 277.137C277.702 276.682 267.195 257.547 280.929 233.31L302.795 235.07Z" fill="#271E49"/>
</g>
<mask id="mask49_153_1975" style="mask-type:luminance" maskUnits="userSpaceOnUse" x="0" y="0" width="713" height="475">
<path d="M0 0.000335693H712.148V474.766H0V0.000335693Z" fill="white"/>
</mask>
<g mask="url(#mask49_153_1975)">
<path d="M264.016 215.898C264.016 215.898 306.545 171.503 326.15 172.89C345.755 174.278 371.019 175.665 388.429 159.017L403.225 226.252C403.225 226.252 380.021 239.946 338.017 240.871C323.784 241.183 293.168 285.254 293.168 285.254L264.016 215.898Z" fill="#33E2B8"/>
</g>
<path d="M336.572 209.616C336.973 210.804 337.057 211.994 336.828 213.188C336.606 214.384 336.055 215.486 335.182 216.493C334.305 217.502 333.129 218.29 331.654 218.852L332.533 221.478L330.631 222.112L329.74 219.452C327.587 219.973 325.671 219.859 323.988 219.107C322.31 218.359 321.092 216.982 320.327 214.979L325.723 213.165C326.271 214.428 327.117 215.066 328.26 215.079L326.547 209.961C324.861 210.05 323.49 210.044 322.43 209.939C321.375 209.836 320.354 209.446 319.359 208.77C318.365 208.097 317.606 206.973 317.077 205.399C316.41 203.435 316.543 201.632 317.478 199.991C318.407 198.352 319.887 197.103 321.918 196.241L321.039 193.615L322.942 192.98L323.821 195.607C325.94 195.089 327.796 195.2 329.384 195.94C330.97 196.675 332.18 198.038 333.012 200.024L327.604 201.849C327.092 200.722 326.335 200.135 325.334 200.091L327.025 205.109C328.819 205.059 330.224 205.076 331.242 205.165C332.266 205.254 333.279 205.629 334.28 206.289C335.282 206.951 336.044 208.058 336.572 209.616ZM322.341 203.329C322.519 203.871 322.822 204.275 323.253 204.542C323.681 204.809 324.227 204.987 324.889 205.076L323.375 200.558C322.864 200.856 322.508 201.237 322.307 201.704C322.113 202.166 322.124 202.706 322.341 203.329ZM330.208 214.545C330.747 214.234 331.123 213.816 331.331 213.288C331.537 212.754 331.543 212.186 331.343 211.585C331.148 211.023 330.831 210.617 330.386 210.373C329.941 210.128 329.362 209.983 328.65 209.939L330.208 214.545Z" fill="white"/>
<mask id="mask50_153_1975" style="mask-type:luminance" maskUnits="userSpaceOnUse" x="0" y="0" width="713" height="475">
<path d="M0 0.000335693H712.148V474.766H0V0.000335693Z" fill="white"/>
</mask>
<g mask="url(#mask50_153_1975)">
<path d="M318.937 186.593C291.704 195.931 302.512 239.473 334.659 231.585C365.732 223.961 353.113 174.874 318.937 186.593Z" stroke="white" stroke-width="0.949531" stroke-miterlimit="10"/>
</g>
<mask id="mask51_153_1975" style="mask-type:luminance" maskUnits="userSpaceOnUse" x="0" y="0" width="713" height="475">
<path d="M0 0.000335693H712.148V474.766H0V0.000335693Z" fill="white"/>
</mask>
<g mask="url(#mask51_153_1975)">
<path d="M270.641 217.161C270.641 217.161 305.333 182.834 323.83 179.135C333.643 177.172 366.444 185.143 384.016 170.553L395.619 224.539C395.619 224.539 369.338 234.307 341.866 236.016C324.489 237.098 314.517 249.199 295.326 271.166L270.641 217.161Z" stroke="white" stroke-width="0.949531" stroke-miterlimit="10"/>
</g>
<mask id="mask52_153_1975" style="mask-type:luminance" maskUnits="userSpaceOnUse" x="0" y="0" width="713" height="475">
<path d="M0 0.000335693H712.148V474.766H0V0.000335693Z" fill="white"/>
</mask>
<g mask="url(#mask52_153_1975)">
<path d="M63.0234 240.703C63.0234 240.703 113.54 255.225 196.419 235.322L219.481 284.348C219.481 284.348 162.719 318.857 108.28 318.002L63.0234 240.703Z" fill="#FF6E75"/>
</g>
<mask id="mask53_153_1975" style="mask-type:luminance" maskUnits="userSpaceOnUse" x="0" y="0" width="713" height="475">
<path d="M0 0.000335693H712.148V474.766H0V0.000335693Z" fill="white"/>
</mask>
<g mask="url(#mask53_153_1975)">
<path d="M196.418 235.321C196.418 235.321 245.59 192.207 265.287 186.017C284.984 179.827 294.474 188.453 294.474 188.453L277.101 203.207C277.101 203.207 310.42 210.349 333.618 218.673C348.171 223.895 324.313 248.712 279.898 241.574C279.898 241.574 270.957 285.253 219.48 284.347L196.418 235.321Z" fill="#FF6E75"/>
</g>
<mask id="mask54_153_1975" style="mask-type:luminance" maskUnits="userSpaceOnUse" x="0" y="0" width="713" height="475">
<path d="M0 0.000335693H712.148V474.766H0V0.000335693Z" fill="white"/>
</mask>
<g mask="url(#mask54_153_1975)">
<path d="M277.104 203.209C277.104 203.209 263.248 198.018 252.355 206.076" stroke="white" stroke-width="0.949531" stroke-miterlimit="10"/>
</g>
<mask id="mask55_153_1975" style="mask-type:luminance" maskUnits="userSpaceOnUse" x="0" y="0" width="713" height="475">
<path d="M0 0.000335693H712.148V474.766H0V0.000335693Z" fill="white"/>
</mask>
<g mask="url(#mask55_153_1975)">
<path d="M279.9 241.575C279.9 241.575 276.053 248.318 264.016 249.82" stroke="white" stroke-width="0.949531" stroke-miterlimit="10"/>
</g>
<mask id="mask56_153_1975" style="mask-type:luminance" maskUnits="userSpaceOnUse" x="0" y="0" width="713" height="475">
<path d="M0 0.000335693H712.148V474.766H0V0.000335693Z" fill="white"/>
</mask>
<g mask="url(#mask56_153_1975)">
<path d="M184.309 315.512C184.309 315.512 239.903 374.617 333.949 324.984L350.06 373.638C350.06 373.638 216.116 420.483 184.309 315.512Z" fill="#2A59FF"/>
</g>
<mask id="mask57_153_1975" style="mask-type:luminance" maskUnits="userSpaceOnUse" x="0" y="0" width="713" height="475">
<path d="M0 0.000335693H712.148V474.766H0V0.000335693Z" fill="white"/>
</mask>
<g mask="url(#mask57_153_1975)">
<path d="M380.856 332.559L363.534 364.045L346.212 395.529L328.374 353.149L310.535 310.767L345.696 321.662L380.856 332.559Z" fill="#2A59FF"/>
</g>
<mask id="mask58_153_1975" style="mask-type:luminance" maskUnits="userSpaceOnUse" x="0" y="0" width="713" height="475">
<path d="M0 0.000335693H712.148V474.766H0V0.000335693Z" fill="white"/>
</mask>
<g mask="url(#mask58_153_1975)">
<path d="M542.593 285.25C542.593 285.25 536.739 204.319 432.457 183.505L450.648 135.591C450.648 135.591 584.129 183.735 542.593 285.25Z" fill="#2A59FF"/>
</g>
<mask id="mask59_153_1975" style="mask-type:luminance" maskUnits="userSpaceOnUse" x="0" y="0" width="713" height="475">
<path d="M0 0.000335693H712.148V474.766H0V0.000335693Z" fill="white"/>
</mask>
<g mask="url(#mask59_153_1975)">
<path d="M400.836 148.035L434.138 134.532L467.442 121.029L454.547 165.167L441.653 209.305L421.244 178.67L400.836 148.035Z" fill="#2A59FF"/>
</g>
<mask id="mask60_153_1975" style="mask-type:luminance" maskUnits="userSpaceOnUse" x="0" y="0" width="713" height="475">
<path d="M0 0.000335693H712.148V474.766H0V0.000335693Z" fill="white"/>
</mask>
<g mask="url(#mask60_153_1975)">
<path d="M448.436 328.096L342.688 289.019L365.906 226.185L471.655 265.263L448.436 328.096Z" fill="#F9D60C"/>
</g>
<path d="M394.838 262.964L394.126 265.09L391.488 264.199L388.551 272.968L386.125 272.167L389.063 263.398L386.425 262.508L387.138 260.383L394.838 262.964ZM400.307 276.91L399.617 272.103L399.038 271.902L397.658 276.019L395.233 275.207L398.882 264.314L402.944 265.682C403.728 265.944 404.349 266.316 404.802 266.806C405.253 267.29 405.528 267.838 405.626 268.453C405.729 269.062 405.673 269.688 405.459 270.333C405.214 271.054 404.808 271.635 404.246 272.08C403.681 272.526 402.994 272.745 402.187 272.737L403.033 277.822L400.307 276.91ZM399.661 270.022L401.152 270.534C401.598 270.684 401.97 270.678 402.276 270.523C402.58 270.361 402.802 270.061 402.944 269.621C403.083 269.207 403.083 268.842 402.944 268.531C402.802 268.219 402.51 267.991 402.065 267.841L400.574 267.329L399.661 270.022ZM414.13 279.402L410.424 278.156L409.178 279.881L406.641 279.035L413.885 269.343L416.689 270.278L416.644 282.384L414.074 281.527L414.13 279.402ZM414.196 277.143L414.297 272.737L411.737 276.32L414.196 277.143ZM427.93 274.044C428.982 274.4 429.825 274.94 430.456 275.658C431.085 276.378 431.48 277.221 431.636 278.184C431.791 279.149 431.686 280.17 431.324 281.244C430.968 282.306 430.434 283.18 429.722 283.87C429.015 284.56 428.192 284.996 427.251 285.183C426.317 285.375 425.326 285.294 424.28 284.938L420.564 283.692L424.214 272.798L427.93 274.044ZM424.892 282.59C425.81 282.896 426.617 282.857 427.307 282.479C428.003 282.101 428.52 281.416 428.854 280.42C429.188 279.413 429.193 278.545 428.876 277.817C428.556 277.082 427.936 276.565 427.018 276.259L425.883 275.869L423.757 282.201L424.892 282.59ZM439.052 280.134L438.318 282.337L441.556 283.427L440.866 285.475L437.628 284.384L436.827 286.766L440.487 288.001L439.775 290.137L433.689 288.09L437.339 277.196L443.425 279.244L442.713 281.369L439.052 280.134Z" fill="#FF3162"/>
<mask id="mask61_153_1975" style="mask-type:luminance" maskUnits="userSpaceOnUse" x="0" y="0" width="713" height="475">
<path d="M0 0.000335693H712.148V474.766H0V0.000335693Z" fill="white"/>
</mask>
<g mask="url(#mask61_153_1975)">
<path d="M446.131 301.33L368.992 272.824L377.838 248.888L454.976 277.393L446.131 301.33Z" stroke="white" stroke-width="0.949531" stroke-miterlimit="10"/>
</g>
<mask id="mask62_153_1975" style="mask-type:luminance" maskUnits="userSpaceOnUse" x="0" y="0" width="713" height="475">
<path d="M0 0.000335693H712.148V474.766H0V0.000335693Z" fill="white"/>
</mask>
<g mask="url(#mask62_153_1975)">
<path d="M591.648 338.711C591.648 338.711 542.554 326.188 501.182 299.673L474.996 346.77C474.996 346.77 515.841 383.882 558.354 395.127L591.648 338.711Z" fill="#FF6E75"/>
</g>
<mask id="mask63_153_1975" style="mask-type:luminance" maskUnits="userSpaceOnUse" x="0" y="0" width="713" height="475">
<path d="M0 0.000335693H712.148V474.766H0V0.000335693Z" fill="white"/>
</mask>
<g mask="url(#mask63_153_1975)">
<path d="M501.184 299.674C501.184 299.674 477.875 256.817 466.692 248.276C455.508 239.734 413.18 222.959 404.934 230.218C396.686 237.478 418.029 250.269 430.583 252.932C443.136 255.598 453.121 295.631 449.217 303.603C443.531 315.216 409.292 297.913 402.419 304.22C393.277 312.613 410.851 326.805 434.356 336.598C455.847 345.551 474.999 346.771 474.999 346.771L501.184 299.674Z" fill="#FF6E75"/>
</g>
<mask id="mask64_153_1975" style="mask-type:luminance" maskUnits="userSpaceOnUse" x="0" y="0" width="713" height="475">
<path d="M0 0.000335693H712.148V474.766H0V0.000335693Z" fill="white"/>
</mask>
<g mask="url(#mask64_153_1975)">
<path d="M654.87 175.152L645.504 165.786H654.87V175.152Z" fill="#33E2B8"/>
</g>
<mask id="mask65_153_1975" style="mask-type:luminance" maskUnits="userSpaceOnUse" x="0" y="0" width="713" height="475">
<path d="M0 0.000335693H712.148V474.766H0V0.000335693Z" fill="white"/>
</mask>
<g mask="url(#mask65_153_1975)">
<path d="M99.2334 98.3867L89.8672 89.0205H99.2334V98.3867Z" fill="#2A59FF"/>
</g>
<mask id="mask66_153_1975" style="mask-type:luminance" maskUnits="userSpaceOnUse" x="0" y="0" width="713" height="475">
<path d="M0 0.000335693H712.148V474.766H0V0.000335693Z" fill="white"/>
</mask>
<g mask="url(#mask66_153_1975)">
<path d="M144.082 146.32H130.836L137.459 152.943L144.082 146.32Z" fill="#2A59FF"/>
</g>
<mask id="mask67_153_1975" style="mask-type:luminance" maskUnits="userSpaceOnUse" x="0" y="0" width="713" height="475">
<path d="M0 0.000335693H712.148V474.766H0V0.000335693Z" fill="white"/>
</mask>
<g mask="url(#mask67_153_1975)">
<path d="M36.8896 150.579L27.5234 159.945V150.579H36.8896Z" fill="#F9D60C"/>
</g>
<mask id="mask68_153_1975" style="mask-type:luminance" maskUnits="userSpaceOnUse" x="0" y="0" width="713" height="475">
<path d="M0 0.000335693H712.148V474.766H0V0.000335693Z" fill="white"/>
</mask>
<g mask="url(#mask68_153_1975)">
<path d="M485.96 24.4727H479.449V17.9617H485.96V24.4727Z" fill="#F9D60C"/>
</g>
<mask id="mask69_153_1975" style="mask-type:luminance" maskUnits="userSpaceOnUse" x="0" y="0" width="713" height="475">
<path d="M0 0.000335693H712.148V474.766H0V0.000335693Z" fill="white"/>
</mask>
<g mask="url(#mask69_153_1975)">
<path d="M213.308 117.727H206.797V111.216H213.308V117.727Z" fill="#33E2B8"/>
</g>
<mask id="mask70_153_1975" style="mask-type:luminance" maskUnits="userSpaceOnUse" x="0" y="0" width="713" height="475">
<path d="M0 0.000335693H712.148V474.766H0V0.000335693Z" fill="white"/>
</mask>
<g mask="url(#mask70_153_1975)">
<path d="M64.093 397.207H57.582V390.696H64.093V397.207Z" fill="#F9D60C"/>
</g>
<mask id="mask71_153_1975" style="mask-type:luminance" maskUnits="userSpaceOnUse" x="0" y="0" width="713" height="475">
<path d="M0 0.000335693H712.148V474.766H0V0.000335693Z" fill="white"/>
</mask>
<g mask="url(#mask71_153_1975)">
<path d="M44.439 362.484L39.8347 367.088L35.2305 362.484L39.8347 357.879L44.439 362.484Z" fill="#33E2B8"/>
</g>
<mask id="mask72_153_1975" style="mask-type:luminance" maskUnits="userSpaceOnUse" x="0" y="0" width="713" height="475">
<path d="M0 0.000335693H712.148V474.766H0V0.000335693Z" fill="white"/>
</mask>
<g mask="url(#mask72_153_1975)">
<path d="M590.676 85.8059L586.072 90.4102L581.469 85.8059L586.072 81.2016L590.676 85.8059Z" fill="#33E2B8"/>
</g>
<mask id="mask73_153_1975" style="mask-type:luminance" maskUnits="userSpaceOnUse" x="0" y="0" width="713" height="475">
<path d="M0 0.000335693H712.148V474.766H0V0.000335693Z" fill="white"/>
</mask>
<g mask="url(#mask73_153_1975)">
<path d="M557.589 116.751L555.286 119.053L552.984 116.751L555.286 114.449L557.589 116.751Z" fill="#2A59FF"/>
</g>
<mask id="mask74_153_1975" style="mask-type:luminance" maskUnits="userSpaceOnUse" x="0" y="0" width="713" height="475">
<path d="M0 0.000335693H712.148V474.766H0V0.000335693Z" fill="white"/>
</mask>
<g mask="url(#mask74_153_1975)">
<path d="M160.892 168.964L156.288 173.568L151.684 168.964L156.288 164.36L160.892 168.964Z" fill="#F9D60C"/>
</g>
<mask id="mask75_153_1975" style="mask-type:luminance" maskUnits="userSpaceOnUse" x="0" y="0" width="713" height="475">
<path d="M0 0.000335693H712.148V474.766H0V0.000335693Z" fill="white"/>
</mask>
<g mask="url(#mask75_153_1975)">
<path d="M46.7098 60.8028L38.5419 68.9707L30.375 60.8028L38.5419 52.635L46.7098 60.8028Z" fill="#33E2B8"/>
</g>
<mask id="mask76_153_1975" style="mask-type:luminance" maskUnits="userSpaceOnUse" x="0" y="0" width="713" height="475">
<path d="M0 0.000335693H712.148V474.766H0V0.000335693Z" fill="white"/>
</mask>
<g mask="url(#mask76_153_1975)">
<path d="M650.237 401.01H643.727V394.499H650.237V401.01Z" fill="#FF3162"/>
</g>
<mask id="mask77_153_1975" style="mask-type:luminance" maskUnits="userSpaceOnUse" x="0" y="0" width="713" height="475">
<path d="M0 0.000335693H712.148V474.766H0V0.000335693Z" fill="white"/>
</mask>
<g mask="url(#mask77_153_1975)">
<path d="M532.751 168.598C532.751 169.638 531.907 170.482 530.866 170.482C529.825 170.482 528.98 169.638 528.98 168.598C528.98 167.557 529.825 166.713 530.866 166.713C531.907 166.713 532.751 167.557 532.751 168.598Z" fill="#FF3162"/>
</g>
<mask id="mask78_153_1975" style="mask-type:luminance" maskUnits="userSpaceOnUse" x="0" y="0" width="713" height="475">
<path d="M0 0.000335693H712.148V474.766H0V0.000335693Z" fill="white"/>
</mask>
<g mask="url(#mask78_153_1975)">
<path d="M678.899 144.768C678.899 145.808 678.054 146.652 677.015 146.652C675.973 146.652 675.129 145.808 675.129 144.768C675.129 143.727 675.973 142.883 677.015 142.883C678.054 142.883 678.899 143.727 678.899 144.768Z" fill="#F9D60C"/>
</g>
<mask id="mask79_153_1975" style="mask-type:luminance" maskUnits="userSpaceOnUse" x="0" y="0" width="713" height="475">
<path d="M0 0.000335693H712.148V474.766H0V0.000335693Z" fill="white"/>
</mask>
<g mask="url(#mask79_153_1975)">
<path d="M620.434 368.99C620.434 370.032 619.59 370.875 618.55 370.875C617.508 370.875 616.664 370.032 616.664 368.99C616.664 367.949 617.508 367.106 618.55 367.106C619.59 367.106 620.434 367.949 620.434 368.99Z" fill="#F9D60C"/>
</g>
<mask id="mask80_153_1975" style="mask-type:luminance" maskUnits="userSpaceOnUse" x="0" y="0" width="713" height="475">
<path d="M0 0.000335693H712.148V474.766H0V0.000335693Z" fill="white"/>
</mask>
<g mask="url(#mask80_153_1975)">
<path d="M70.129 333.125C70.129 334.167 69.2849 335.01 68.2442 335.01C67.2035 335.01 66.3594 334.167 66.3594 333.125C66.3594 332.084 67.2035 331.241 68.2442 331.241C69.2849 331.241 70.129 332.084 70.129 333.125Z" fill="#FF3162"/>
</g>
<mask id="mask81_153_1975" style="mask-type:luminance" maskUnits="userSpaceOnUse" x="0" y="0" width="713" height="475">
<path d="M0 0.000335693H712.148V474.766H0V0.000335693Z" fill="white"/>
</mask>
<g mask="url(#mask81_153_1975)">
<path d="M69.3227 134.052C69.3227 135.554 68.1054 136.771 66.6032 136.771C65.1011 136.771 63.8828 135.554 63.8828 134.052C63.8828 132.55 65.1011 131.333 66.6032 131.333C68.1054 131.333 69.3227 132.55 69.3227 134.052Z" fill="#FF3162"/>
</g>
<mask id="mask82_153_1975" style="mask-type:luminance" maskUnits="userSpaceOnUse" x="0" y="0" width="713" height="475">
<path d="M0 0.000335693H712.148V474.766H0V0.000335693Z" fill="white"/>
</mask>
<g mask="url(#mask82_153_1975)">
<path d="M156.514 47.427C156.514 48.9292 155.297 50.1465 153.795 50.1465C152.292 50.1465 151.074 48.9292 151.074 47.427C151.074 45.9249 152.292 44.7076 153.795 44.7076C155.297 44.7076 156.514 45.9249 156.514 47.427Z" fill="#FF3162"/>
</g>
</svg>
